<svg width="64" height="64" viewBox="0 0 64 64" fill="none" xmlns="http://www.w3.org/2000/svg">
<path d="M42.1034 8.63571C43.9965 8.63571 45.8121 9.40783 47.1507 10.7822C48.4893 12.1566 49.2414 14.0206 49.2414 15.9643V45.3698H54V15.9643C54 12.7249 52.7466 9.6181 50.5156 7.32748C48.2845 5.03686 45.2586 3.75 42.1034 3.75L10.3793 3.75C9.74828 3.75 9.14309 4.00737 8.69688 4.4655C8.25068 4.92362 8 5.54497 8 6.19286C8 6.84074 8.25068 7.46209 8.69688 7.92022C9.14309 8.37834 9.74828 8.63571 10.3793 8.63571C13.2948 8.63571 14.3448 9.71383 14.3448 12.7071V48.5357C14.3448 50.1397 14.6525 51.728 15.2504 53.2099C15.8483 54.6918 16.7246 56.0383 17.8292 57.1725C18.9339 58.3067 20.2454 59.2064 21.6888 59.8202C23.1321 60.4341 24.6791 60.75 26.2414 60.75H51.6207V55.8643H26.2414C24.3483 55.8643 22.5327 55.0922 21.1941 53.7178C19.8555 52.3434 19.1034 50.4794 19.1034 48.5357V12.7071C19.1274 11.318 18.896 9.93675 18.4214 8.63571H42.1034Z" fill="white" stroke="white"/>
<path d="M26.2893 60.729C28.1164 60.8483 29.9412 60.4587 31.5757 59.6003C33.2102 58.7419 34.5955 57.4457 35.5889 55.8451H26.2549C31.1127 55.8451 33.2804 52.5891 33.2804 45.26C33.2813 44.612 33.5291 43.9909 33.9696 43.5331C34.4101 43.0752 35.0071 42.818 35.6296 42.818H60.654C61.2759 42.8189 61.8722 43.0764 62.312 43.5342C62.7517 43.992 62.9992 44.6126 63 45.26V48.5159C62.9959 51.7528 61.7587 54.8559 59.5597 57.1448C57.3608 59.4336 54.3796 60.7214 51.2698 60.7257L26.2893 60.729ZM35.5889 55.8451H51.2667C53.1331 55.8425 54.9223 55.0694 56.2418 53.6953C57.5612 52.3213 58.3032 50.4586 58.3048 48.5159V47.7052H37.8849C37.7694 50.5729 36.9811 53.3675 35.5889 55.8451ZM23.8963 58.287C23.8831 57.9629 23.9346 57.6395 24.0476 57.3372C24.1606 57.0349 24.3327 56.7603 24.5529 56.5308C24.7731 56.3013 25.0367 56.1218 25.3269 56.0038C25.6172 55.8857 25.9278 55.8317 26.2392 55.8451V60.729C25.9277 60.7428 25.6169 60.6891 25.3264 60.5712C25.0359 60.4534 24.7721 60.2739 24.5518 60.0443C24.3315 59.8147 24.1595 59.5399 24.0466 59.2374C23.9338 58.9349 23.8826 58.6112 23.8963 58.287ZM4.34603 21.6577C3.72408 21.6568 3.12784 21.3993 2.68805 20.9415C2.24826 20.4837 2.00083 19.8631 2 19.2157V12.7038C2 10.3291 2.90629 8.05169 4.5195 6.37252C6.13271 4.69335 8.3207 3.75 10.6021 3.75C12.8835 3.75 15.0715 4.69335 16.6847 6.37252C18.298 8.05169 19.2042 10.3291 19.2042 12.7038V19.2157C19.2034 19.8631 18.956 20.4837 18.5162 20.9415C18.0764 21.3993 17.4802 21.6568 16.8582 21.6577H4.34603ZM6.69207 12.7038V16.7738H14.5122V12.7038C14.5122 11.6244 14.1002 10.5892 13.367 9.82596C12.6337 9.06271 11.6391 8.63391 10.6021 8.63391C9.56511 8.63391 8.57057 9.06271 7.8373 9.82596C7.10402 10.5892 6.69207 11.6244 6.69207 12.7038Z" fill="white"/>
<path d="M35.5889 55.8451C34.5955 57.4457 33.2102 58.7419 31.5757 59.6003C29.9412 60.4587 28.1164 60.8483 26.2893 60.729L51.2698 60.7257C54.3796 60.7214 57.3608 59.4336 59.5597 57.1448C61.7587 54.8559 62.9959 51.7528 63 48.5159V45.26C62.9992 44.6126 62.7517 43.992 62.312 43.5342C61.8722 43.0764 61.2759 42.8189 60.654 42.818H35.6296C35.0071 42.818 34.4101 43.0752 33.9696 43.5331C33.5291 43.9909 33.2813 44.612 33.2804 45.26C33.2804 52.5891 31.1127 55.8451 26.2549 55.8451H35.5889ZM35.5889 55.8451H51.2667C53.1331 55.8425 54.9223 55.0694 56.2418 53.6953C57.5612 52.3213 58.3032 50.4586 58.3048 48.5159V47.7052H37.8849C37.7694 50.5729 36.9811 53.3675 35.5889 55.8451ZM23.8963 58.287C23.8831 57.9629 23.9346 57.6395 24.0476 57.3372C24.1606 57.0349 24.3327 56.7603 24.5529 56.5308C24.7731 56.3013 25.0367 56.1218 25.3269 56.0038C25.6172 55.8857 25.9278 55.8317 26.2392 55.8451V60.729C25.9277 60.7428 25.6169 60.6891 25.3264 60.5712C25.0359 60.4534 24.7721 60.2739 24.5518 60.0443C24.3315 59.8147 24.1595 59.5399 24.0466 59.2374C23.9338 58.9349 23.8826 58.6112 23.8963 58.287ZM4.34603 21.6577C3.72408 21.6568 3.12784 21.3993 2.68805 20.9415C2.24826 20.4837 2.00083 19.8631 2 19.2157V12.7038C2 10.3291 2.90629 8.05169 4.5195 6.37252C6.13271 4.69335 8.3207 3.75 10.6021 3.75C12.8835 3.75 15.0715 4.69335 16.6847 6.37252C18.298 8.05169 19.2042 10.3291 19.2042 12.7038V19.2157C19.2034 19.8631 18.956 20.4837 18.5162 20.9415C18.0764 21.3993 17.4802 21.6568 16.8582 21.6577H4.34603ZM6.69207 12.7038V16.7738H14.5122V12.7038C14.5122 11.6244 14.1002 10.5892 13.367 9.82596C12.6337 9.06271 11.6391 8.63391 10.6021 8.63391C9.56511 8.63391 8.57057 9.06271 7.8373 9.82596C7.10402 10.5892 6.69207 11.6244 6.69207 12.7038Z" stroke="white"/>
</svg>
